#!OML:ASF H:\BabyWalks\Project 1\Capture day 1\Session 1\baby.ASF
:FULLY-SPECIFIED
:DEGREES
533
root 3.4423 17.5154 10.9376 -3.92417 63.7711 -10.7588
lowerback 19.544 -0.216235 -3.31124
upperback 4.27389 -0.833009 -0.899307
thorax -6.26903 -0.283438 1.11486
lowerneck -0.0688088 6.13549 8.08919
upperneck -0.455903 8.18083 -4.1731
head 0.405073 4.08884 -2.64859
rclavicle -2.82274e-014 3.18055e-014
rhumerus -48.1797 5.25662 -80.7602
rradius 46.8606
rwrist -0.119582
rhand -8.32507 -17.0874
rfingers 7.12502
rthumb 17.596 -46.3111
lclavicle -2.82274e-014 3.18055e-014
lhumerus -32.8821 -15.3586 76.4881
lradius 73.6081
lwrist 3.05591
lhand -8.27547 6.31707
lfingers 7.12502
lthumb 17.6438 35.5365
rfemur -27.4957 3.70154 16.9808
rtibia 49.9251
rfoot -15.7805 11.4212
rtoes -13.1256
lfemur -12.9932 -15.0728 -19.9433
ltibia 34.9974
lfoot -24.6319 -15.3837
ltoes 17.062
534
root 3.54902 17.541 11.0233 -3.99302 64.6461 -11.0143
lowerback 19.5124 -0.367188 -3.27366
upperback 4.21405 -1.01395 -0.758895
thorax -6.30722 -0.370334 1.2881
lowerneck -0.15742 6.0322 7.98154
upperneck -0.516408 8.03542 -4.23158
head 0.38972 4.01457 -2.64984
rclavicle -8.22969e-014 7.95139e-015
rhumerus -48.6902 5.05013 -80.4287
rradius 46.4778
rwrist 0.08944
rhand -8.3228 -17.214
rfingers 7.12502
rthumb 17.5982 -46.4375
lclavicle -8.22969e-014 7.95139e-015
lhumerus -32.7307 -15.9834 76.8134
lradius 74.9108
lwrist 3.26071
lhand -8.05282 6.09816
lfingers 7.12502
lthumb 17.858 35.2982
rfemur -27.7146 4.20121 16.7403
rtibia 47.4816
rfoot -16.3177 10.3865
rtoes -12.8578
lfemur -12.4186 -15.3969 -19.847
ltibia 34.2311
lfoot -24.4229 -15.8938
ltoes 17.4607
535
root 3.6582 17.5645 11.109 -4.05533 65.5181 -11.2741
lowerback 19.4528 -0.51284 -3.21445
upperback 4.15063 -1.18266 -0.613493
thorax -6.33457 -0.451894 1.45104
lowerneck -0.266502 5.9129 7.88767
upperneck -0.54926 7.86742 -4.31703
head 0.387198 3.92915 -2.66177
rclavicle -3.85642e-014 1.43125e-014
rhumerus -49.2138 4.86633 -80.1007
rradius 46.1197
rwrist 0.296916
rhand -8.35573 -17.283
rfingers 7.12502
rthumb 17.5665 -46.5094
lclavicle -3.85642e-014 1.43125e-014
lhumerus -32.629 -16.5687 77.1295
lradius 76.1436
lwrist 3.48452
lhand -7.8793 5.89282
lfingers 7.12502
lthumb 18.025 35.0776
rfemur -27.8893 4.69334 16.4715
rtibia 44.9786
rfoot -16.7927 9.64098
rtoes -12.6821
lfemur -11.8574 -15.6739 -19.7446
ltibia 33.4666
lfoot -24.2047 -16.4402
ltoes 17.9339
536
root 3.76966 17.5857 11.1948 -4.09757 66.3903 -11.5263
lowerback 19.358 -0.653098 -3.14407
upperback 4.08429 -1.34083 -0.461563
thorax -6.34624 -0.52892 1.61131
lowerneck -0.389017 5.7785 7.80602
upperneck -0.561122 7.67866 -4.43653
head 0.394436 3.8334 -2.68689
rclavicle 5.36719e-014 -6.36111e-015
rhumerus -49.7452 4.7094 -79.7747
rradius 45.7899
rwrist 0.490568
rhand -8.3879 -17.3112
rfingers 7.12502
rthumb 17.5356 -46.5404
lclavicle 5.36719e-014 -6.36111e-015
lhumerus -32.5786 -17.1047 77.4401
lradius 77.3069
lwrist 3.72985
lhand -7.75329 5.72289
lfingers 7.12502
lthumb 18.1462 34.8964
rfemur -28.0346 5.17304 16.1723
rtibia 42.4719
rfoot -17.2032 9.17161
rtoes -12.5869
lfemur -11.3165 -15.9058 -19.6387
ltibia 32.7106
lfoot -23.9831 -17.0254
ltoes 18.4489
537
root 3.88374 17.6045 11.2809 -4.12038 67.2494 -11.7658
lowerback 19.2267 -0.783649 -3.0705
upperback 4.01543 -1.48444 -0.301256
thorax -6.34116 -0.599383 1.77417
lowerneck -0.525593 5.63487 7.73943
upperneck -0.543194 7.47715 -4.59328
head 0.414993 3.73132 -2.7266
rclavicle 4.49253e-014 3.97569e-015
rhumerus -50.281 4.58601 -79.4499
rradius 45.4858
rwrist 0.670972
rhand -8.38842 -17.3124
rfingers 7.12502
rthumb 17.5351 -46.5416
lclavicle 4.49253e-014 3.97569e-015
lhumerus -32.59 -17.583 77.752
lradius 78.3976
lwrist 3.99515
lhand -7.68302 5.59912
lfingers 7.12502
lthumb 18.2138 34.7664
rfemur -28.1606 5.65197 15.8495
rtibia 40.0256
rfoot -17.5596 8.90363
rtoes -12.5817
lfemur -10.7914 -16.0823 -19.5307
ltibia 31.9707
lfoot -23.767 -17.65
ltoes 18.9881
538
root 4.00035 17.6209 11.3671 -4.10244 68.0974 -11.9672
lowerback 19.0582 -0.904821 -3.00407
upperback 3.94513 -1.61616 -0.134666
thorax -6.31726 -0.664465 1.94362
lowerneck -0.664925 5.48284 7.6873
upperneck -0.505313 7.2649 -4.78949
head 0.443829 3.62384 -2.78224
rclavicle 2.82274e-014 -7.95139e-016
rhumerus -50.8145 4.4956 -79.126
rradius 45.1987
rwrist 0.839708
rhand -8.33022 -17.287
rfingers 7.12502
rthumb 17.5911 -46.5112
lclavicle 2.82274e-014 -7.95139e-016
lhumerus -32.6647 -17.9961 78.0687
lradius 79.4069
lwrist 4.27762
lhand -7.67278 5.52706
lfingers 7.12502
lthumb 18.2237 34.6934
rfemur -28.2816 6.11264 15.5092
rtibia 37.7072
rfoot -17.8772 8.70678
rtoes -12.7882
lfemur -10.281 -16.2121 -19.4312
ltibia 31.2502
lfoot -23.5537 -18.3115
ltoes 19.5175
539
root 4.11961 17.6347 11.4535 -4.07495 68.9252 -12.1538
lowerback 18.861 -1.01481 -2.93642
upperback 3.87361 -1.73212 0.0418424
thorax -6.27927 -0.722304 2.11789
lowerneck -0.808694 5.3232 7.65802
upperneck -0.439992 7.04318 -5.03878
head 0.48447 3.51152 -2.85998
rclavicle -6.0033e-014 2.22639e-014
rhumerus -51.348 4.44449 -78.804
rradius 44.9368
rwrist 0.988129
rhand -8.17502 -17.2802
rfingers 7.12502
rthumb 17.7404 -46.491
lclavicle -6.0033e-014 2.22639e-014
lhumerus -32.8063 -18.3344 78.3968
lradius 80.3251
lwrist 4.5725
lhand -7.71805 5.50184
lfingers 7.12502
lthumb 18.1801 34.6722
rfemur -28.3954 6.57503 15.1686
rtibia 35.5812
rfoot -18.1701 8.46466
rtoes -13.1115
lfemur -9.77697 -16.2956 -19.3314
ltibia 30.5568
lfoot -23.3393 -19.0092
ltoes 20.0152
540
root 4.24139 17.6455 11.5398 -4.03533 69.7291 -12.3168
lowerback 18.6383 -1.1129 -2.86911
upperback 3.80256 -1.83191 0.226033
thorax -6.22702 -0.77267 2.29532
lowerneck -0.943024 5.15868 7.64025
upperneck -0.360431 6.81674 -5.32825
head 0.529403 3.39672 -2.95424
rclavicle 1.15295e-014 1.90833e-014
rhumerus -51.8725 4.42976 -78.4864
rradius 44.6881
rwrist 1.12179
rhand -7.94715 -17.2624
rfingers 7.12502
rthumb 17.9597 -46.4532
lclavicle 1.15295e-014 1.90833e-014
lhumerus -33.0168 -18.5891 78.7382
lradius 81.1405
lwrist 4.8683
lhand -7.8051 5.51476
lfingers 7.12502
lthumb 18.0964 34.6929
rfemur -28.5025 7.03582 14.8362
rtibia 33.7022
rfoot -18.4539 8.07478
rtoes -13.5464
lfemur -9.2781 -16.3306 -19.2367
ltibia 29.9053
lfoot -23.1174 -19.7367
ltoes 20.493
541
root 4.36535 17.6536 11.626 -4.00726 70.5088 -12.4726
lowerback 18.4055 -1.19994 -2.79368
upperback 3.72972 -1.91559 0.418114
thorax -6.17156 -0.815434 2.47183
lowerneck -1.06443 4.98771 7.62395
upperneck -0.263403 6.58407 -5.64526
head 0.57787 3.27874 -3.05922
rclavicle -1.23246e-014 -3.97569e-015
rhumerus -52.3904 4.44798 -78.1734
rradius 44.4493
rwrist 1.24916
rhand -7.62953 -17.2418
rfingers 7.12502
rthumb 18.2653 -46.4042
lclavicle -1.23246e-014 -3.97569e-015
lhumerus -33.2994 -18.7594 79.0964
lradius 81.8375
lwrist 5.15558
lhand -7.94393 5.5361
lfingers 7.12502
lthumb 17.9628 34.7266
rfemur -28.5954 7.48691 14.5304
rtibia 32.1064
rfoot -18.7154 7.48235
rtoes -14.0044
lfemur -8.7883 -16.3105 -19.1425
ltibia 29.32
lfoot -22.8873 -20.4958
ltoes 20.9418
542
root 4.49103 17.6588 11.7117 -4.0031 71.2674 -12.6264
lowerback 18.1734 -1.27885 -2.70708
upperback 3.65801 -1.98649 0.617294
thorax -6.11562 -0.852117 2.64596
lowerneck -1.16958 4.81262 7.59092
upperneck -0.158828 6.34866 -5.97216
head 0.62485 3.15932 -3.16576
rclavicle -8.74653e-014 1.43125e-014
rhumerus -52.8868 4.49957 -77.868
rradius 44.2112
rwrist 1.36642
rhand -7.22985 -17.2217
rfingers 7.12502
rthumb 18.6497 -46.3477
lclavicle -8.74653e-014 1.43125e-014
lhumerus -33.6557 -18.8389 79.4694
lradius 82.4098
lwrist 5.42843
lhand -8.14204 5.54328
lfingers 7.12502
lthumb 17.7722 34.7511
rfemur -28.6614 7.91406 14.2624
rtibia 30.8115
rfoot -18.9334 6.69627
rtoes -14.3306
lfemur -8.31453 -16.2271 -19.0499
ltibia 28.8308
lfoot -22.6424 -21.2887
ltoes 21.3742
543
root 4.61788 17.661 11.7967 -4.03107 72.009 -12.7799
lowerback 17.9583 -1.3509 -2.60361
upperback 3.58602 -2.04576 0.820694
thorax -6.06973 -0.883064 2.81236
lowerneck -1.2692 4.63199 7.52891
upperneck -0.0360519 6.10836 -6.29199
head 0.674363 3.03732 -3.26536
rclavicle 2.78299e-014 -1.19271e-014
rhumerus -53.3636 4.57784 -77.5727
rradius 43.9737
rwrist 1.47602
rhand -6.77351 -17.1858
rfingers 7.12502
rthumb 19.0886 -46.2691
lclavicle 2.78299e-014 -1.19271e-014
lhumerus -34.0859 -18.8277 79.8579
lradius 82.8511
lwrist 5.6825
lhand -8.38269 5.54653
lfingers 7.12502
lthumb 17.5406 34.7752
rfemur -28.683 8.30176 14.0427
rtibia 29.8134
rfoot -19.0743 5.75993
rtoes -14.4273
lfemur -7.87312 -16.0615 -18.9589
ltibia 28.479
lfoot -22.3732 -22.1304
ltoes 21.8255
544
root 4.74488 17.6603 11.8808 -4.11142 72.7421 -12.9539
lowerback 17.7736 -1.42001 -2.47596
upperback 3.51515 -2.09726 1.02755
thorax -6.03987 -0.91003 2.96758
lowerneck -1.38017 4.44593 7.41939
upperneck 0.108322 5.86261 -6.58236
head 0.729026 2.91224 -3.34623
rclavicle -4.77083e-014 -1.03368e-014
rhumerus -53.8087 4.672 -77.2889
rradius 43.7332
rwrist 1.58016
rhand -6.27558 -17.1377
rfingers 7.12502
rthumb 19.5674 -46.1731
lclavicle -4.77083e-014 -1.03368e-014
lhumerus -34.5842 -18.7284 80.2527
lradius 83.1551
lwrist 5.89773
lhand -8.66656 5.53334
lfingers 7.12502
lthumb 17.2674 34.7862
rfemur -28.6519 8.6296 13.8866
rtibia 29.0903
rfoot -19.0909 4.75521
rtoes -14.1811
lfemur -7.493 -15.7918 -18.8602
ltibia 28.3156
lfoot -22.0761 -23.0354
ltoes 22.3165
545
root 4.87138 17.6557 11.9638 -4.24503 73.4682 -13.1452
lowerback 17.6333 -1.48695 -2.3239
upperback 3.44651 -2.14201 1.23508
thorax -6.03256 -0.93331 3.10943
lowerneck -1.51593 4.2546 7.252
upperneck 0.277961 5.61128 -6.82869
head 0.791755 2.78371 -3.40087
rclavicle 3.3197e-014 7.95139e-016
rhumerus -54.2174 4.77976 -77.0203
rradius 43.4934
rwrist 1.67202
rhand -5.74776 -17.083
rfingers 7.12502
rthumb 20.0748 -46.0659
lclavicle 3.3197e-014 7.95139e-016
lhumerus -35.1472 -18.543 80.6501
lradius 83.3235
lwrist 6.08552
lhand -9.0005 5.52863
lfingers 7.12502
lthumb 16.946 34.8094
rfemur -28.5501 8.87927 13.8026
rtibia 28.6084
rfoot -18.9569 3.77674
rtoes -13.6275
lfemur -7.20051 -15.394 -18.7527
ltibia 28.3957
lfoot -21.7398 -24.0187
ltoes 22.8778
546
root 4.99643 17.6464 12.0458 -4.40078 74.2009 -13.327
lowerback 17.5422 -1.55453 -2.15267
upperback 3.38115 -2.18471 1.43785
thorax -6.04913 -0.955068 3.2365
lowerneck -1.70239 4.05746 7.03047
upperneck 0.482888 5.35284 -7.02949
head 0.870708 2.65042 -3.42883
rclavicle 2.68359e-014 -3.89618e-014
rhumerus -54.5821 4.88086 -76.7644
rradius 43.2542
rwrist 1.75689
rhand -5.21234 -17.0102
rfingers 7.12502
rthumb 20.5894 -45.9383
lclavicle 2.68359e-014 -3.89618e-014
lhumerus -35.7609 -18.2819 81.0395
lradius 83.3561
lwrist 6.23156
lhand -9.38143 5.54408
lfingers 7.12502
lthumb 16.5792 34.8559
rfemur -28.3743 9.04504 13.7778
rtibia 28.3314
rfoot -18.643 2.92803
rtoes -12.7489
lfemur -7.03184 -14.857 -18.6385
ltibia 28.7657
lfoot -21.3351 -25.1029
ltoes 23.527
547
root 5.11992 17.6319 12.1267 -4.5698 74.9428 -13.4866
lowerback 17.5052 -1.62323 -1.9634
upperback 3.32529 -2.22574 1.6326
thorax -6.08579 -0.975538 3.34629
lowerneck -1.959 3.85751 6.75091
upperneck 0.726902 5.09124 -7.17839
head 0.970935 2.51378 -3.42691
rclavicle -7.69297e-014 2.78299e-015
rhumerus -54.8972 4.9663 -76.5213
rradius 43.0228
rwrist 1.82783
rhand -4.67436 -16.9411
rfingers 7.12502
rthumb 21.1063 -45.8123
lclavicle -7.69297e-014 2.78299e-015
lhumerus -36.4139 -17.9514 81.4135
lradius 83.2582
lwrist 6.32768
lhand -9.79092 5.61921
lfingers 7.12502
lthumb 16.185 34.9635
rfemur -28.1093 9.15548 13.7957
rtibia 28.2188
rfoot -18.1553 2.30887
rtoes -11.4735
lfemur -7.00788 -14.1736 -18.5153
ltibia 29.4695
lfoot -20.8349 -26.3045
ltoes 24.2732
